<?xml version="1.0"?>
<svg xmlns="http://www.w3.org/2000/svg" height="512px" viewBox="-27 0 503 503.70291" width="512px"><g><path d="m296.777344 126.320312c0 4.960938-4.023438 8.980469-8.984375 8.980469-4.960938 0-8.980469-4.019531-8.980469-8.980469 0-4.960937 4.019531-8.984374 8.980469-8.984374 4.960937 0 8.984375 4.023437 8.984375 8.984374zm0 0" data-original="#000000" class="active-path" data-old_color="#000000" fill="#FFFFFF"/><path d="m135.09375 72.425781c-29.976562 0-62.878906 35.253907-62.878906 67.367188.035156 10.015625 2.476562 19.871093 7.125 28.742187 25.222656.648438 49.660156 8.890625 70.125 23.652344 19.058594-10.5 30.796875-30.636719 30.539062-52.394531 0-32.660157-15.734375-67.367188-44.910156-67.367188zm-8.984375 80.839844c-14.882813 0-26.945313-12.0625-26.945313-26.945313 0-14.882812 12.0625-26.949218 26.945313-26.949218s26.949219 12.066406 26.949219 26.949218c0 14.882813-12.066406 26.945313-26.949219 26.945313zm0 0" data-original="#000000" class="active-path" data-old_color="#000000" fill="#FFFFFF"/><path d="m136.980469 497.035156c13.179687 9.554688 31.207031 8.769532 43.511719-1.898437 11.292968-8.582031 17.792968-22.058594 17.476562-36.242188v-215.535156c.070312-5.03125-3.949219-9.171875-8.980469-9.25-15.027343.167969-27.082031 12.46875-26.949219 27.496094v89.363281c6.992188 6.101562 12.742188 13.488281 16.933594 21.765625.171875.347656.320313.703125.449219 1.070313 1.632813 4.714843-.835937 9.867187-5.535156 11.550781-4.503907 1.617187-9.484375-.636719-11.234375-5.09375-5.207032-10.234375-13.527344-18.554688-23.761719-23.765625-10.671875-5.226563-22.753906-6.851563-34.429687-4.628906-8.324219 1.746093-14.285157 9.089843-14.28125 17.597656.007812 1.207031.136718 2.410156.378906 3.59375l1.195312 6.171875c.105469 0 .195313-.0625.304688-.089844 15.484375-2.820313 31.460937-.765625 45.730468 5.875 13.707032 6.429687 24.984376 17.101563 32.15625 30.441406.226563.429688.417969.878907.566407 1.34375 1.589843 4.726563-.917969 9.851563-5.625 11.492188-4.4375 1.550781-9.320313-.632813-11.121094-4.976563-5.359375-9.699218-13.65625-17.445312-23.695313-22.132812-10.777343-4.96875-22.820312-6.503906-34.5-4.402344-2.117187.382812-4.15625 1.125-6.027343 2.191406-5.050781 2.820313-8.226563 8.105469-8.34375 13.886719.003906 1.070313.117187 2.132813.339843 3.179687l4.277344 23.023438c.3125 2.109375 1.992188 10.625 10.023438 10.625 5.640625-.875 11.113281-2.59375 16.238281-5.101562-.058594-6.253907-1.148437-12.453126-3.230469-18.351563-1.945312-4.566406.183594-9.84375 4.75-11.785156 4.566406-1.941407 9.84375.183593 11.785156 4.75 6.3125 17.660156 6.410157 36.941406.277344 54.660156-1.140625 9.28125 3.296875 18.367187 11.320313 23.175781zm0 0" data-original="#000000" class="active-path" data-old_color="#000000" fill="#FFFFFF"/><path d="m135.09375 126.320312c0 4.960938-4.023438 8.980469-8.984375 8.980469s-8.980469-4.019531-8.980469-8.980469c0-4.960937 4.019532-8.984374 8.980469-8.984374s8.984375 4.023437 8.984375 8.984374zm0 0" data-original="#000000" class="active-path" data-old_color="#000000" fill="#FFFFFF"/><path d="m334.574219 168.535156c4.640625-8.871094 7.078125-18.730468 7.117187-28.742187 0-32.113281-32.90625-67.367188-62.878906-67.367188-29.175781 0-44.914062 34.707031-44.914062 67.367188-.253907 21.757812 11.480468 41.894531 30.542968 52.394531 20.460938-14.765625 44.90625-23.007812 70.132813-23.652344zm-46.78125-69.164062c14.882812 0 26.949219 12.066406 26.949219 26.949218 0 14.882813-12.066407 26.945313-26.949219 26.945313-14.882813 0-26.945313-12.0625-26.945313-26.945313 0-14.882812 12.0625-26.949218 26.945313-26.949218zm0 0" data-original="#000000" class="active-path" data-old_color="#000000" fill="#FFFFFF"/><path d="m215.933594 449.480469c3.082031.125 6.074218.207031 8.984375.207031 108.105469.128906 201-76.695312 221.160156-182.90625 20.15625-106.210938-38.125-211.730469-138.761719-251.21875-100.636718-39.488281-215.128906-1.765625-272.582031 89.808594-57.449219 91.578125-41.59375 211.078125 37.75 284.503906.808594-.855469 1.664063-1.65625 2.5625-2.4375l-2.09375-10.832031c-.492187-2.347657-.738281-4.742188-.738281-7.140625.019531-17.070313 12.023437-31.785156 28.746094-35.230469 4.578124-.878906 9.230468-1.320313 13.894531-1.320313 10.070312.042969 20.023437 2.183594 29.21875 6.289063v-77.609375c-.113281-24.9375 19.976562-45.265625 44.914062-45.449219 14.929688.09375 26.976563 12.238281 26.945313 27.171875 25.347656 2.425782 44.699218 23.714844 44.699218 49.179688 0 25.460937-19.351562 46.753906-44.699218 49.175781zm-63.503906-238.726563-.214844.109375c-.089844 0-.171875.097657-.261719.132813-1.074219.441406-2.226563.667968-3.386719.664062h-.0625c-.917968-.019531-1.824218-.175781-2.695312-.464844-.285156-.101562-.539063-.261718-.816406-.386718-.636719-.261719-1.238282-.601563-1.796876-1.007813-.117187-.089843-.261718-.117187-.378906-.207031-19.621094-15.511719-44.019531-23.734375-69.027344-23.253906-6.152343.011718-12.296874.40625-18.398437 1.1875-4.921875.628906-9.421875-2.851563-10.050781-7.773438-.628906-4.917968 2.847656-9.417968 7.769531-10.050781 2.253906-.285156 4.492187-.457031 6.773437-.644531-3.679687-9.320313-5.589843-19.246094-5.632812-29.265625 0-42.273438 40.800781-85.332031 80.84375-85.332031 40.84375 0 62.875 43.96875 62.875 85.332031.351562 30.625-17.550781 58.523437-45.539062 70.960937zm63.503906-70.960937c0-41.320313 22.035156-85.332031 62.878906-85.332031 40.042969 0 80.84375 43.058593 80.84375 85.332031-.046875 10.015625-1.957031 19.933593-5.632812 29.246093 2.253906.1875 4.488281.359376 6.773437.648438 4.917969.628906 8.398437 5.128906 7.769531 10.050781-.632812 4.921875-5.132812 8.398438-10.054687 7.769531-6.113281-.78125-12.273438-1.175781-18.4375-1.1875-24.996094-.46875-49.378907 7.75-68.988281 23.257813-.117188.089844-.257813.117187-.375.207031-.558594.402344-1.160157.742188-1.796876 1.003906-.277343.125-.53125.289063-.816406.386719-.871094.292969-1.78125.449219-2.695312.46875h-.0625c-1.164063.003907-2.3125-.222656-3.386719-.664062-.089844 0-.171875-.101563-.261719-.136719l-.214844-.089844c-27.988281-12.4375-45.890624-40.335937-45.542968-70.960937zm27.164062 212.148437c11.8125-6.300781 21.488282-15.972656 27.792969-27.785156 1.515625-2.828125 4.421875-4.636719 7.632813-4.738281 3.207031-.105469 6.226562 1.511719 7.921874 4.238281 1.695313 2.726562 1.804688 6.148438.289063 8.980469-7.976563 14.941406-20.214844 27.175781-35.15625 35.148437-2.832031 1.515625-6.253906 1.40625-8.980469-.289062-2.726562-1.695313-4.34375-4.714844-4.242187-7.921875.105469-3.210938 1.910156-6.121094 4.742187-7.632813zm0 0" data-original="#000000" class="active-path" data-old_color="#000000" fill="#FFFFFF"/><path d="m215.933594 261.515625v61.976563c15.472656-2.144532 26.992187-15.371094 26.992187-30.988282 0-15.617187-11.519531-28.84375-26.992187-30.988281zm0 0" data-original="#000000" class="active-path" data-old_color="#000000" fill="#FFFFFF"/></g> </svg>
